:SAMPLES-PER-SECOND 30
:FULLY-SPECIFIED
:DEGREES
37
root  -5.77213 39.7942 -4.67272 175.626 43.672 176.073
RightUpLeg  -5.13837 -9.10199 -8.99683
RightLeg  14.0837 -15.4658 -4.47615
RightFoot  -2.07276 -0.865586 10.476
RightToes  -5.8209e-011 0 -3.6325e-017
Spine  -5.39573 0.886991 -9.23463
Spine1  24.6196 1.93692 -1.88488
HEad  -9.73061 27.0605 -1.86413
LeftShoulder1  2.03873 -4.44972 -19.0467
LeftArm  17.1978 6.70746 -55.9926
LeftForeArm  20.2591 -77.3698 -98.1098
LeftHand  -0.0414499 5.22726 35.1205
RightShoulder  0.985475 0.403055 18.8254
RightArm  0.205389 -8.68223 60.0277
RightForeArm  -0.682679 25.3741 5.47549
RightHand  -1.45343 5.05782 -16.3346
LeftUpLeg  3.33442 -0.0314514 -3.96373
LeftLeg  6.14513 11.6332 0.485871
LeftFoot  -7.74599 0.012417 1.09322
LeftToes  -3.91115e-011 -2.2622e-010 9.51032e-012
38
root  -5.81349 39.7965 -4.59466 175.929 44.5273 176.258
RightUpLeg  -5.6435 -9.02528 -8.65889
RightLeg  13.9335 -14.8832 -4.25327
RightFoot  -1.82749 -0.859233 10.1499
RightToes  -5.8209e-011 0 -3.6325e-017
Spine  -4.82198 0.930933 -8.94649
Spine1  24.1211 1.98531 -2.01186
HEad  -10.0762 27.7596 -2.20692
LeftShoulder1  2.03844 -4.46909 -18.9776
LeftArm  16.3959 5.9476 -56.3049
LeftForeArm  17.8837 -77.446 -95.2546
LeftHand  -0.147596 4.89071 35.5259
RightShoulder  1.01925 0.573529 18.5727
RightArm  -0.619417 -8.58568 60.2935
RightForeArm  -0.840899 25.9535 5.61607
RightHand  -1.6056 5.38375 -17.4673
LeftUpLeg  2.79436 0.0414818 -3.75769
LeftLeg  6.64914 12.3816 0.642516
LeftFoot  -7.90066 0.0203754 0.92836
LeftToes  -3.91115e-011 -2.2622e-010 9.51032e-012
39
root  -5.86391 39.8038 -4.50674 176.211 45.3416 176.475
RightUpLeg  -5.98451 -9.20792 -8.36029
RightLeg  13.556 -14.1058 -3.86942
RightFoot  -1.56325 -0.861289 9.92019
RightToes  -5.8209e-011 0 -3.6325e-017
Spine  -4.0899 0.899591 -8.61544
Spine1  23.6041 1.94831 -2.13268
HEad  -10.5722 28.5959 -2.76867
LeftShoulder1  2.0369 -4.52135 -18.8539
LeftArm  15.4576 4.95702 -56.6584
LeftForeArm  15.9765 -77.4865 -92.8604
LeftHand  -0.204619 4.7098 35.5118
RightShoulder  1.04328 0.692727 18.4193
RightArm  -1.01749 -8.55523 60.4861
RightForeArm  0.542594 27.0777 5.8046
RightHand  -1.74845 5.64101 -18.5508
LeftUpLeg  2.24538 -0.0121606 -3.60082
LeftLeg  7.22977 13.21 0.950279
LeftFoot  -7.999 0.0241506 0.819338
LeftToes  -3.91115e-011 -2.2622e-010 9.51032e-012
40
root  -5.90234 39.8183 -4.42118 176.293 46.3677 176.651
RightUpLeg  -6.06279 -9.11823 -8.07053
RightLeg  12.9868 -13.3631 -3.46788
RightFoot  -1.29971 -0.86727 9.748
RightToes  -5.8209e-011 0 -3.6325e-017
Spine  -3.42808 0.875397 -8.25482
Spine1  23.4258 1.96258 -2.32466
HEad  -11.095 29.6193 -3.47904
LeftShoulder1  2.02769 -4.56632 -18.5741
LeftArm  14.496 3.75122 -57.0702
LeftForeArm  14.4783 -77.5034 -90.9518
LeftHand  -0.124901 4.95665 34.6232
RightShoulder  1.04709 0.710676 18.404
RightArm  -0.861571 -8.29793 60.5474
RightForeArm  2.55673 28.4116 6.01336
RightHand  -1.77898 5.66185 -18.828
LeftUpLeg  2.03649 -0.0246377 -3.44623
LeftLeg  7.56526 14.1724 1.21601
LeftFoot  -7.99532 0.028965 0.65477
LeftToes  -3.91115e-011 -2.2622e-010 9.51032e-012
41
root  -5.91933 39.8343 -4.3437 176.242 47.7688 176.779
RightUpLeg  -6.0558 -8.52906 -7.70524
RightLeg  12.3684 -12.7066 -3.17787
RightFoot  -1.06157 -0.864468 9.50778
RightToes  -5.8209e-011 0 -3.6325e-017
Spine  -3.00038 0.90968 -7.87685
Spine1  23.596 2.0919 -2.59868
HEad  -11.5196 30.8894 -4.2425
LeftShoulder1  2.00234 -4.56111 -18.2523
LeftArm  13.5269 2.42818 -57.4459
LeftForeArm  13.2709 -77.5084 -89.1975
LeftHand  -0.00320163 5.35385 33.2674
RightShoulder  1.04498 0.704678 18.3778
RightArm  -0.45185 -7.85137 60.5516
RightForeArm  4.14465 29.7742 6.25817
RightHand  -1.65967 5.44274 -17.9402
LeftUpLeg  2.12676 0.139864 -3.22893
LeftLeg  7.6366 15.3121 1.32477
LeftFoot  -7.97283 0.0361778 0.399712
LeftToes  -3.91115e-011 -2.2622e-010 9.51032e-012
42
root  -5.92747 39.8441 -4.26451 176.246 49.2148 176.876
RightUpLeg  -6.17667 -7.73639 -7.28064
RightLeg  11.8609 -12.1771 -3.03653
RightFoot  -0.875481 -0.853198 9.23647
RightToes  -5.8209e-011 0 -3.6325e-017
Spine  -2.71084 0.901409 -7.62637
Spine1  23.804 2.14409 -2.77355
HEad  -11.8493 32.331 -5.00785
LeftShoulder1  1.98318 -4.5414 -18.0607
LeftArm  12.4641 1.15423 -57.7026
LeftForeArm  12.4227 -77.5053 -87.4664
LeftHand  0.0108404 5.40533 32.2708
RightShoulder  1.04896 0.742016 18.2147
RightArm  -0.0945057 -7.48086 60.5812
RightForeArm  4.75343 31.2226 6.5869
RightHand  -1.43949 5.10339 -16.1123
LeftUpLeg  2.14629 0.369827 -2.98934
LeftLeg  7.73052 16.4487 1.38288
LeftFoot  -7.99124 0.0432505 0.163712
LeftToes  -3.91115e-011 -2.2622e-010 9.51032e-012
43
root  -5.94055 39.8468 -4.17105 176.313 50.2472 176.918
RightUpLeg  -6.42672 -7.13315 -6.92374
RightLeg  11.562 -11.834 -2.99407
RightFoot  -0.751806 -0.84392 9.05501
RightToes  -5.8209e-011 0 -3.6325e-017
Spine  -2.33757 0.723743 -7.62285
Spine1  23.8648 1.92776 -2.75221
HEad  -12.2223 33.7548 -5.78285
LeftShoulder1  1.97945 -4.55181 -17.9762
LeftArm  11.3093 -0.0109394 -57.8659
LeftForeArm  11.7723 -77.4935 -85.811
LeftHand  -0.0583485 5.16123 31.7418
RightShoulder  1.05438 0.803269 17.9831
RightArm  0.176644 -7.2866 60.6721
RightForeArm  4.40378 32.6662 6.98012
RightHand  -1.19489 4.69584 -13.9726
LeftUpLeg  1.91628 0.465516 -2.83166
LeftLeg  8.03127 17.3087 1.5447
LeftFoot  -8.01484 0.0485719 -0.0134636
LeftToes  -3.91115e-011 -2.2622e-010 9.51032e-012
44
root  -5.95453 39.8461 -4.06531 176.31 50.8672 176.876
RightUpLeg  -6.68506 -6.85195 -6.70264
RightLeg  11.467 -11.5358 -2.95778
RightFoot  -0.678791 -0.837791 8.94763
RightToes  -5.8209e-011 0 -3.6325e-017
Spine  -1.81409 0.423158 -7.7014
Spine1  23.8685 1.57609 -2.75151
HEad  -12.7269 34.9953 -6.5421
LeftShoulder1  1.97818 -4.58473 -17.8511
LeftArm  10.2274 -1.15716 -58.0011
LeftForeArm  10.6494 -77.4664 -84.0503
LeftHand  -0.0627968 5.14398 31.0375
RightShoulder  1.0581 0.846977 17.8365
RightArm  0.458555 -7.20263 60.8338
RightForeArm  3.58294 33.8218 7.33646
RightHand  -0.995884 4.25117 -12.228
LeftUpLeg  1.62182 0.427805 -2.76629
LeftLeg  8.40428 17.8652 1.77729
LeftFoot  -8.0103 0.0549502 -0.233946
LeftToes  -3.91115e-011 -2.2622e-010 9.51032e-012
45
root  -5.95716 39.8437 -3.95951 176.2 51.4148 176.758
RightUpLeg  -6.92086 -6.76865 -6.57209
RightLeg  11.5056 -11.073 -2.86777
RightFoot  -0.646262 -0.830062 8.83517
RightToes  -5.8209e-011 0 -3.6325e-017
Spine  -1.27389 0.171756 -7.62751
Spine1  23.9156 1.36438 -2.96929
HEad  -13.2556 35.9798 -7.17809
LeftShoulder1  1.9791 -4.63586 -17.6973
LeftArm  9.34039 -2.32903 -58.1055
LeftForeArm  8.63943 -77.4134 -81.987
LeftHand  0.0494811 5.5688 29.813
RightShoulder  1.05972 0.860583 17.8128
RightArm  0.812486 -7.22054 61.0395
RightForeArm  2.99571 34.5006 7.55709
RightHand  -0.881726 3.91805 -11.2339
LeftUpLeg  1.43931 0.435382 -2.70704
LeftLeg  8.67602 18.3258 1.93149
LeftFoot  -8.0085 0.0631107 -0.515255
LeftToes  -3.91115e-011 -2.2622e-010 9.51032e-012
46
root  -5.94439 39.8384 -3.85979 176.06 52.0255 176.607
RightUpLeg  -7.16867 -6.70211 -6.45731
RightLeg  11.6089 -10.5094 -2.76086
RightFoot  -0.654776 -0.823028 8.74861
RightToes  -5.8209e-011 0 -3.6325e-017
Spine  -0.82884 0.0543711 -7.47509
Spine1  23.965 1.31359 -3.2083
HEad  -13.6239 36.6945 -7.61969
LeftShoulder1  1.9996 -4.72248 -17.6899
LeftArm  8.57378 -3.39213 -58.1529
LeftForeArm  6.38305 -77.3425 -79.95
LeftHand  0.179532 6.10247 28.4774
RightShoulder  1.05988 0.852484 17.8342
RightArm  1.27715 -7.37032 61.2134
RightForeArm  3.12024 34.6798 7.59998
RightHand  -0.840096 3.83179 -10.8107
LeftUpLeg  1.32092 0.565188 -2.60429
LeftLeg  8.88507 18.7873 1.98298
LeftFoot  -8.0346 0.0693455 -0.729894
LeftToes  -3.91115e-011 -2.2622e-010 9.51032e-012
47
root  -5.91731 39.8312 -3.76312 175.97 52.5761 176.521
RightUpLeg  -7.37586 -6.53009 -6.27899
RightLeg  11.7163 -10.1174 -2.71725
RightFoot  -0.688042 -0.81936 8.72475
RightToes  -5.8209e-011 0 -3.6325e-017
Spine  -0.46547 0.0207243 -7.44711
Spine1  23.998 1.2463 -3.17305
HEad  -13.8033 37.1448 -7.93004
LeftShoulder1  2.03611 -4.81376 -17.8769
LeftArm  7.81984 -4.17947 -58.2089
LeftForeArm  4.84372 -77.2801 -78.4309
LeftHand  0.230033 6.33905 27.6129
RightShoulder  1.06136 0.8569 17.8475
RightArm  1.85304 -7.61214 61.2883
RightForeArm  3.81611 34.4421 7.49368
RightHand  -0.820876 3.88114 -10.5166
LeftUpLeg  1.20385 0.742043 -2.44888
LeftLeg  9.14589 19.129 2.05309
LeftFoot  -8.0868 0.0734007 -0.873578
LeftToes  -3.91115e-011 -2.2622e-010 9.51032e-012
48
root  -5.87333 39.826 -3.66697 175.982 53.0707 176.613
RightUpLeg  -7.46572 -6.1832 -5.95029
RightLeg  11.7487 -9.98973 -2.75157
RightFoot  -0.70643 -0.812684 8.6616
RightToes  -5.8209e-011 0 -3.6325e-017
Spine  -0.198272 0.0230361 -7.46181
Spine1  24.1107 1.15427 -2.97153
HEad  -13.9521 37.3788 -8.20323
LeftShoulder1  2.05397 -4.82369 -18.0775
LeftArm  7.12501 -4.69001 -58.4118
LeftForeArm  3.95173 -77.227 -77.2286
LeftHand  0.196711 6.21336 27.305
RightShoulder  1.07897 0.92427 17.8755
RightArm  2.43837 -7.90496 61.2642
RightForeArm  4.52396 34.0353 7.34066
RightHand  -0.776252 3.80802 -10.0345
LeftUpLeg  1.13119 0.939257 -2.19209
LeftLeg  9.4504 19.331 2.20446
LeftFoot  -8.18042 0.0799479 -1.11768
LeftToes  -3.91115e-011 -2.2622e-010 9.51032e-012
49
root  -5.81161 39.8245 -3.57272 176.1 53.6914 176.827
RightUpLeg  -7.51221 -5.65811 -5.48525
RightLeg  11.6833 -9.94244 -2.81655
RightFoot  -0.705722 -0.79512 8.47519
RightToes  -5.8209e-011 0 -3.6325e-017
Spine  -0.118375 0.0816012 -7.30151
Spine1  24.3462 1.21066 -2.95002
HEad  -14.2269 37.5077 -8.45008
LeftShoulder1  2.02978 -4.70985 -18.1279
LeftArm  6.58231 -5.03384 -58.8159
LeftForeArm  2.73238 -77.1495 -75.6903
LeftHand  0.135688 5.96214 27.1319
RightShoulder  1.11362 1.05203 17.9566
RightArm  2.89249 -8.26691 61.1773
RightForeArm  5.0255 33.796 7.24643
RightHand  -0.705378 3.57052 -9.37358
LeftUpLeg  1.1091 1.19652 -1.83029
LeftLeg  9.70899 19.6186 2.35745
LeftFoot  -8.30156 0.0894212 -1.49141
LeftToes  -3.91115e-011 -2.2622e-010 9.51032e-012
50
root  -5.74091 39.8237 -3.47968 176.213 54.4497 176.93
RightUpLeg  -7.66381 -5.05889 -5.05091
RightLeg  11.6351 -9.81724 -2.88872
RightFoot  -0.745063 -0.77292 8.26554
RightToes  -5.8209e-011 0 -3.6325e-017
Spine  -0.180889 0.19574 -7.04743
Spine1  24.5646 1.42986 -3.14585
HEad  -14.6302 37.6367 -8.6707
LeftShoulder1  1.98105 -4.53081 -18.067
LeftArm  6.15644 -5.25139 -59.3166
LeftForeArm  0.713891 -77.0334 -73.7591
LeftHand  0.110212 5.86447 26.7323
RightShoulder  1.14467 1.15829 18.0734
RightArm  3.14877 -8.68097 61.0559
RightForeArm  5.65473 33.8712 7.23037
RightHand  -0.650725 3.41079 -8.81825
LeftUpLeg  1.06711 1.47619 -1.50339
LeftLeg  9.88704 20.0724 2.44602
LeftFoot  -8.37217 0.097686 -1.82891
LeftToes  -3.91115e-011 -2.2622e-010 9.51032e-012
51
root  -5.67366 39.8192 -3.38243 176.207 55.1059 176.836
RightUpLeg  -7.90745 -4.5439 -4.76149
RightLeg  11.7225 -9.67479 -2.97358
RightFoot  -0.859353 -0.754882 8.15182
RightToes  -5.8209e-011 0 -3.6325e-017
Spine  -0.13419 0.290731 -6.95619
Spine1  24.6022 1.5899 -3.26669
HEad  -15.0736 37.7889 -8.95345
LeftShoulder1  1.94214 -4.38391 -18.0297
LeftArm  5.76621 -5.32998 -59.7541
LeftForeArm  -1.55578 -76.9083 -71.99
LeftHand  0.13856 5.99846 26.2849
RightShoulder  1.15166 1.17729 18.1267
RightArm  3.19183 -9.04771 60.9342
RightForeArm  6.51125 34.2174 7.27459
RightHand  -0.635591 3.44537 -8.58684
LeftUpLeg  0.984767 1.6897 -1.3101
LeftLeg  10.0374 20.4336 2.51549
LeftFoot  -8.37387 0.10477 -2.10391
LeftToes  -3.91115e-011 -2.2622e-010 9.51032e-012
